<svg width="11" height="9" viewBox="0 0 11 9" fill="none" xmlns="http://www.w3.org/2000/svg">
<path fill-rule="evenodd" clip-rule="evenodd" d="M8.51889 1.18557C8.68994 1.01602 8.92085 0.92059 9.1617 0.919925C9.40254 0.919261 9.63398 1.01341 9.80596 1.18202C9.97794 1.35063 10.0767 1.58015 10.0808 1.82097C10.0849 2.06178 9.99403 2.29453 9.82789 2.46891L4.94878 8.5678C4.86493 8.65812 4.76372 8.7306 4.65121 8.78091C4.5387 8.83122 4.4172 8.85833 4.29398 8.86061C4.17075 8.86289 4.04833 8.8403 3.93404 8.79419C3.81975 8.74808 3.71592 8.67939 3.62878 8.59224L0.396003 5.35824C0.305941 5.27432 0.233705 5.17312 0.183604 5.06068C0.133503 4.94823 0.106562 4.82685 0.104391 4.70377C0.102219 4.58069 0.124861 4.45843 0.170964 4.34429C0.217068 4.23015 0.285689 4.12646 0.372734 4.03941C0.459779 3.95237 0.563465 3.88375 0.677606 3.83765C0.791747 3.79154 0.914005 3.7689 1.03709 3.77107C1.16017 3.77324 1.28155 3.80018 1.39399 3.85028C1.50644 3.90039 1.60764 3.97262 1.69156 4.06268L4.25089 6.62079L8.49567 1.21246C8.50325 1.20299 8.51141 1.19401 8.52011 1.18557H8.51889Z" fill="white"/>
</svg>
