<svg width="20" height="13" fill="none" xmlns="http://www.w3.org/2000/svg"><path d="M12.997 6.249a3 3 0 01-3.002 2.996A3 3 0 016.992 6.25a3 3 0 013.003-2.997 3 3 0 013.002 2.997zM10 .009C8.283.017 6.503.452 4.818 1.286A13.235 13.235 0 001.29 3.962C.77 4.535.107 5.365 0 6.25c.013.766.802 1.713 1.29 2.287.992 1.078 2.18 1.962 3.528 2.677A11.752 11.752 0 0010 12.49c1.719-.008 3.498-.448 5.181-1.277a13.238 13.238 0 003.53-2.677C19.23 7.964 19.892 7.135 20 6.25c-.013-.767-.802-1.713-1.29-2.288-.992-1.078-2.18-1.961-3.529-2.676A11.82 11.82 0 0010 .009zm-.001 1.55c2.602 0 4.711 2.1 4.711 4.691 0 2.592-2.11 4.692-4.711 4.692-2.602 0-4.712-2.1-4.712-4.692 0-2.59 2.11-4.692 4.712-4.692z" fill="#7D7C83"/></svg>